<?xml version="1.0" standalone="no"?>
<!DOCTYPE svg PUBLIC "-//W3C//DTD SVG 1.1//EN" "http://www.w3.org/Graphics/SVG/1.1/DTD/svg11.dtd">
<svg width="212" height="212" version="1.1" xmlns="http://www.w3.org/2000/svg">
  <title>13 cells diameter theta maze</title>
  <desc>13 cells diameter theta maze generated by The Maze Generator Website (https://www.mazegenerator.net/).</desc>
  <g fill="none" stroke="#000000" stroke-width="2" stroke-linecap="square">
    <path d="M 90.029437251522864,123.97056274847714 A 24,24 0 1,1 107,131" />
    <path d="M 70.044818699548529,91.6926627053964 A 40,40 0 0,1 143.95518130045147,122.30733729460359" />
    <path d="M 107,147 A 40,40 0 0,1 91.692662705396415,143.95518130045147" />
    <path d="M 78.7157287525381,135.2842712474619 A 40,40 0 0,1 67,107.00000000000001" />
    <path d="M 107,51 A 56,56 0 0,1 158.73725382063205,85.569727787554967" />
    <path d="M 158.73725382063208,128.43027221244503 A 56,56 0 0,1 128.43027221244503,158.73725382063205" />
    <path d="M 85.569727787554982,158.73725382063208 A 56,56 0 0,1 67.402020253553346,146.59797974644667" />
    <path d="M 51,107.00000000000001 A 56,56 0 0,1 67.402020253553331,67.402020253553346" />
    <path d="M 166.86581208578326,66.998943222588636 A 72,72 0 1,1 147.00105677741135,47.134187914216739" />
    <path d="M 89.832051662580668,20.690895324515722 A 88,88 0 0,1 155.890180505725,33.83067411737602" />
    <path d="M 169.22539674441617,44.774603255583813 A 88,88 0 0,1 180.16932588262398,155.89018050572497" />
    <path d="M 124.16794833741932,193.30910467548426 A 88,88 0 0,1 89.83205166258071,193.30910467548426" />
    <path d="M 73.323857951872114,188.30139886099323 A 88,88 0 0,1 44.774603255583827,169.2253967444162" />
    <path d="M 20.690895324515722,124.16794833741932 A 88,88 0 0,1 19,107.00000000000001" />
    <path d="M 25.698601139006769,73.323857951872071 A 88,88 0 0,1 73.323857951872043,25.698601139006783" />
    <path d="M 127.28939348967734,4.9983308380640352 A 104,104 0 1,1 107,3" />
  </g>
  <g fill="none" stroke="#000000" stroke-width="2" stroke-linecap="butt">
    <line x1="155.890180505725" y1="33.83067411737602" x2="147.00105677741135" y2="47.134187914216746" />
    <line x1="169.22539674441617" y1="44.774603255583813" x2="146.59797974644664" y2="67.402020253553331" />
    <line x1="158.73725382063205" y1="85.569727787554967" x2="143.95518130045147" y2="91.6926627053964" />
    <line x1="179" y1="107" x2="163" y2="107" />
    <line x1="180.53910524340097" y1="180.53910524340094" x2="157.91168824543144" y2="157.91168824543144" />
    <line x1="146.59797974644667" y1="146.59797974644664" x2="123.97056274847714" y2="123.97056274847714" />
    <line x1="164.77930423403862" y1="193.4728396794647" x2="155.890180505725" y2="180.16932588262398" />
    <line x1="140.6761420481279" y1="188.30139886099323" x2="134.55320713028647" y2="173.51932634081265" />
    <line x1="128.43027221244503" y1="158.73725382063205" x2="122.3073372946036" y2="143.95518130045147" />
    <line x1="107.00000000000001" y1="179" x2="107" y2="131" />
    <line x1="86.710606510322648" y1="209.00166916193598" x2="89.83205166258071" y2="193.30910467548426" />
    <line x1="44.774603255583827" y1="169.2253967444162" x2="56.088311754568579" y2="157.91168824543144" />
    <line x1="67.402020253553346" y1="146.59797974644667" x2="90.029437251522864" y2="123.97056274847714" />
    <line x1="20.5271603205353" y1="164.77930423403862" x2="33.83067411737602" y2="155.890180505725" />
    <line x1="25.698601139006783" y1="140.67614204812796" x2="55.262746179367952" y2="128.43027221244506" />
    <line x1="19" y1="107.00000000000001" x2="35" y2="107.00000000000001" />
    <line x1="51" y1="107.00000000000001" x2="67" y2="107.00000000000001" />
    <line x1="4.9983308380640352" y1="86.710606510322663" x2="20.690895324515722" y2="89.83205166258071" />
    <line x1="25.698601139006783" y1="73.323857951872071" x2="40.48067365918736" y2="79.446792869713519" />
    <line x1="79.446792869713491" y1="40.480673659187374" x2="91.692662705396387" y2="70.044818699548543" />
  </g>
</svg>
