<?xml version="1.0" standalone="no"?>
<!DOCTYPE svg PUBLIC "-//W3C//DTD SVG 1.1//EN" "http://www.w3.org/Graphics/SVG/1.1/DTD/svg11.dtd">
<svg width="268" height="232.63070659909181" version="1.1" xmlns="http://www.w3.org/2000/svg">
  <title>Triangular delta maze with 12 cells side</title>
  <desc>Triangular delta maze with 12 cells side generated by The Maze Generator Website (https://www.mazegenerator.net/).</desc>
  <g fill="none" stroke="#000000" stroke-width="2" stroke-linecap="round" stroke-linejoin="round">
    <line x1="101" y1="59.157676649772952" x2="145" y2="59.157676649772952" />
    <line x1="112" y1="78.2102355330306" x2="156" y2="78.2102355330306" />
    <line x1="79" y1="97.262794416288258" x2="101" y2="97.262794416288258" />
    <line x1="123" y1="97.262794416288258" x2="145" y2="97.262794416288258" />
    <line x1="68" y1="116.31535329954591" x2="90" y2="116.31535329954591" />
    <line x1="112" y1="116.31535329954591" x2="134" y2="116.31535329954591" />
    <line x1="79" y1="135.36791218280354" x2="101" y2="135.36791218280354" />
    <line x1="68" y1="154.42047106606123" x2="112" y2="154.42047106606123" />
    <line x1="79" y1="173.47302994931886" x2="145" y2="173.47302994931886" />
    <line x1="134" y1="192.52558883257649" x2="200" y2="192.52558883257649" />
    <line x1="35" y1="211.57814771583418" x2="57" y2="211.57814771583418" />
    <line x1="123" y1="211.57814771583418" x2="189" y2="211.57814771583418" />
    <line x1="211" y1="211.57814771583418" x2="233" y2="211.57814771583418" />
    <line x1="2" y1="230.63070659909181" x2="266" y2="230.63070659909181" />
    <polyline points="2,230.63070659909178 13,211.57814771583415 24,192.52558883257652 35,173.47302994931889" />
    <line x1="24" y1="192.52558883257652" x2="35" y2="211.57814771583415" />
    <polyline points="35,173.47302994931883 46,154.4204710660612 57,135.36791218280357" />
    <line x1="57" y1="173.47302994931889" x2="46" y2="192.52558883257652" />
    <line x1="68" y1="154.4204710660612" x2="57" y2="173.47302994931883" />
    <line x1="79" y1="97.262794416288244" x2="68" y2="116.31535329954591" />
    <line x1="68" y1="192.52558883257652" x2="79" y2="211.57814771583415" />
    <line x1="90" y1="78.2102355330306" x2="79" y2="97.262794416288258" />
    <line x1="79" y1="173.47302994931889" x2="90" y2="192.52558883257652" />
    <line x1="79" y1="211.57814771583415" x2="90" y2="230.63070659909178" />
    <line x1="101" y1="59.157676649772959" x2="90" y2="78.210235533030612" />
    <line x1="112" y1="40.105117766515306" x2="101" y2="59.157676649772952" />
    <line x1="112" y1="116.31535329954591" x2="101" y2="135.36791218280357" />
    <line x1="112" y1="154.4204710660612" x2="101" y2="173.47302994931883" />
    <polyline points="112,192.52558883257652 101,211.57814771583415 112,230.63070659909178" />
    <line x1="123" y1="21.052558883257653" x2="112" y2="40.105117766515306" />
    <line x1="123" y1="135.36791218280357" x2="112" y2="154.4204710660612" />
    <line x1="123" y1="173.47302994931889" x2="112" y2="192.52558883257652" />
    <polyline points="134,2.0000000000000053 123,21.052558883257653 134,40.105117766515306" />
    <line x1="134" y1="116.31535329954591" x2="123" y2="135.36791218280357" />
    <line x1="134" y1="192.52558883257652" x2="123" y2="211.57814771583415" />
    <line x1="134" y1="2.0000000000000053" x2="145" y2="21.052558883257653" />
    <polyline points="145,97.262794416288244 134,116.31535329954591 145,135.36791218280357" />
    <line x1="145" y1="21.052558883257653" x2="156" y2="40.105117766515306" />
    <line x1="145" y1="59.157676649772959" x2="156" y2="78.210235533030612" />
    <line x1="145" y1="135.36791218280357" x2="156" y2="154.4204710660612" />
    <line x1="156" y1="40.105117766515306" x2="167" y2="59.157676649772952" />
    <line x1="156" y1="78.2102355330306" x2="167" y2="97.262794416288258" />
    <line x1="156" y1="116.31535329954591" x2="167" y2="135.36791218280357" />
    <line x1="156" y1="154.4204710660612" x2="167" y2="173.47302994931883" />
    <line x1="167" y1="173.47302994931889" x2="156" y2="192.52558883257652" />
    <line x1="167" y1="59.157676649772959" x2="178" y2="78.210235533030612" />
    <line x1="167" y1="135.36791218280357" x2="178" y2="154.4204710660612" />
    <line x1="178" y1="78.2102355330306" x2="189" y2="97.262794416288258" />
    <line x1="189" y1="97.262794416288244" x2="178" y2="116.31535329954591" />
    <polyline points="189,135.36791218280357 178,154.4204710660612 189,173.47302994931883" />
    <polyline points="189,97.262794416288244 200,116.31535329954591 189,135.36791218280357" />
    <line x1="200" y1="116.31535329954591" x2="211" y2="135.36791218280357" />
    <line x1="200" y1="154.4204710660612" x2="211" y2="173.47302994931883" />
    <polyline points="211,173.47302994931889 200,192.52558883257652 211,211.57814771583415" />
    <polyline points="211,135.36791218280357 222,154.4204710660612 233,173.47302994931883" />
    <polyline points="222,192.52558883257652 233,173.47302994931889 244,192.52558883257652 255,211.57814771583415 266,230.63070659909178" />
  </g>
</svg>
