<?xml version="1.0" standalone="no"?>
<!DOCTYPE svg PUBLIC "-//W3C//DTD SVG 1.1//EN" "http://www.w3.org/Graphics/SVG/1.1/DTD/svg11.dtd">
<svg width="324" height="324" version="1.1" xmlns="http://www.w3.org/2000/svg">
  <title>20 cells diameter theta maze</title>
  <desc>20 cells diameter theta maze generated by The Maze Generator Website (https://www.mazegenerator.net/).</desc>
  <g fill="none" stroke="#000000" stroke-width="2" stroke-linecap="square">
    <path d="M 140.37258300203047,185.62741699796953 A 32,32 0 1,1 163,195" />
    <path d="M 144.63119524647567,118.65378243945824 A 48,48 0 0,1 163,115" />
    <path d="M 181.3688047535243,118.65378243945824 A 48,48 0 0,1 196.94112549695427,129.05887450304573" />
    <path d="M 207.34621756054176,144.6311952464757 A 48,48 0 0,1 211,163" />
    <path d="M 207.34621756054176,181.3688047535243 A 48,48 0 0,1 181.3688047535243,207.34621756054176" />
    <path d="M 163,211 A 48,48 0 0,1 129.05887450304573,196.94112549695427" />
    <path d="M 115,163 A 48,48 0 0,1 118.65378243945824,144.63119524647567" />
    <path d="M 163,99 A 64,64 0 0,1 187.49173967136574,103.87170991927765" />
    <path d="M 208.25483399593904,117.74516600406096 A 64,64 0 0,1 227,163" />
    <path d="M 208.25483399593904,208.25483399593904 A 64,64 0 0,1 138.50826032863427,222.12829008072237" />
    <path d="M 117.74516600406096,208.25483399593907 A 64,64 0 0,1 117.74516600406095,117.74516600406096" />
    <path d="M 84.537177567741566,147.39277423870973 A 80,80 0 0,1 163,83" />
    <path d="M 178.60722576129027,84.537177567741566 A 80,80 0 0,1 207.44561864156816,96.482431015796379" />
    <path d="M 219.5685424949238,106.4314575050762 A 80,80 0 0,1 243,163" />
    <path d="M 241.46282243225843,178.60722576129027 A 80,80 0 0,1 147.39277423870973,241.46282243225843" />
    <path d="M 132.38532541079283,236.91036260090294 A 80,80 0 0,1 106.43145750507621,219.5685424949238" />
    <path d="M 96.482431015796379,207.44561864156816 A 80,80 0 0,1 89.089637399097072,193.61467458920723" />
    <path d="M 84.537177567741566,178.60722576129029 A 80,80 0 0,1 83,163.00000000000003" />
    <path d="M 83.178917218955633,109.66525763011822 A 96,96 0 0,1 163,67" />
    <path d="M 199.7376095070486,74.307564878916466 A 96,96 0 0,1 257.15538691871012,144.27132908645169" />
    <path d="M 257.15538691871012,181.72867091354831 A 96,96 0 0,1 251.69243512108352,199.7376095070486" />
    <path d="M 216.33474236988181,242.82108278104437 A 96,96 0 0,1 199.73760950704863,251.69243512108352" />
    <path d="M 181.72867091354834,257.15538691871012 A 96,96 0 0,1 74.3075648789165,199.73760950704866" />
    <path d="M 68.844613081289879,181.72867091354834 A 96,96 0 0,1 68.844613081289879,144.27132908645169" />
    <path d="M 100.77613390180454,69.875403422114928 A 112,112 0 0,1 184.85011606580636,53.152048594838192" />
    <path d="M 225.22386609819546,69.875403422114928 A 112,112 0 0,1 266.4745076412641,120.13945557510994" />
    <path d="M 275,163 A 112,112 0 0,1 272.84795140516178,184.85011606580636" />
    <path d="M 266.47450764126415,205.86054442489004 A 112,112 0 0,1 256.12459657788509,225.22386609819543" />
    <path d="M 242.19595949289334,242.19595949289331 A 112,112 0 0,1 225.22386609819543,256.12459657788509" />
    <path d="M 184.85011606580639,272.84795140516178 A 112,112 0 0,1 120.13945557510996,266.47450764126415" />
    <path d="M 100.77613390180459,256.12459657788509 A 112,112 0 0,1 83.804040507106691,242.19595949289334" />
    <path d="M 59.5254923587359,205.86054442489012 A 112,112 0 0,1 51,163.00000000000003" />
    <path d="M 69.8754034221149,100.7761339018046 A 112,112 0 0,1 83.804040507106663,83.804040507106691" />
    <path d="M 187.97156121806441,37.459484108386505 A 128,128 0 0,1 253.50966799187808,72.490332008121911" />
    <path d="M 269.4281103747258,91.8870101734909 A 128,128 0 0,1 291,163" />
    <path d="M 288.5405158916135,187.97156121806441 A 128,128 0 0,1 281.25658016144473,211.98347934273147" />
    <path d="M 269.4281103747258,234.11298982650905 A 128,128 0 0,1 234.11298982650908,269.4281103747258" />
    <path d="M 211.9834793427315,281.25658016144473 A 128,128 0 0,1 187.97156121806447,288.5405158916135" />
    <path d="M 163.00000000000003,291 A 128,128 0 0,1 138.02843878193556,288.5405158916135" />
    <path d="M 114.01652065726853,281.25658016144473 A 128,128 0 0,1 91.88701017349095,269.4281103747258" />
    <path d="M 72.490332008121925,253.5096679918781 A 128,128 0 0,1 37.459484108386519,187.97156121806447" />
    <path d="M 35,163.00000000000003 A 128,128 0 0,1 56.571889625274181,91.887010173490964" />
    <path d="M 72.4903320081219,72.490332008121939 A 128,128 0 0,1 91.887010173490921,56.57188962527421" />
    <path d="M 114.01652065726843,44.743419838555326 A 128,128 0 0,1 138.02843878193554,37.459484108386519" />
    <path d="M 177.11446820745672,19.693399359203653 A 144,144 0 0,1 191.09300637032249,21.766919621934818" />
    <path d="M 218.10641426057293,29.96134731837472 A 144,144 0 0,1 230.88113010294364,36.003337933836875" />
    <path d="M 243.0021135548227,43.268375828433477 A 144,144 0 0,1 289.99666206616314,95.118869897056314" />
    <path d="M 296.03865268162531,107.89358573942707 A 144,144 0 0,1 300.79940834543811,121.19900647535744" />
    <path d="M 307,163 A 144,144 0 0,1 274.31350528423411,254.35263291956494" />
    <path d="M 264.82337649086287,264.82337649086281 A 144,144 0 0,1 204.80099352464259,300.79940834543811" />
    <path d="M 191.09300637032251,304.23308037806521 A 144,144 0 0,1 148.88553179254328,306.30660064079632" />
    <path d="M 134.90699362967752,304.23308037806521 A 144,144 0 0,1 95.118869897056342,289.99666206616314" />
    <path d="M 82.997886445177329,282.73162417156652 A 144,144 0 0,1 71.647367080435075,274.31350528423411" />
    <path d="M 61.176623509137173,264.82337649086287 A 144,144 0 0,1 51.686494715765917,254.352632919565" />
    <path d="M 36.003337933836889,230.8811301029437 A 144,144 0 0,1 29.961347318374749,218.10641426057302" />
    <path d="M 25.200591654561919,204.80099352464259 A 144,144 0 0,1 19.693399359203653,177.1144682074567" />
    <path d="M 19,163.00000000000003 A 144,144 0 0,1 19.693399359203653,148.88553179254336" />
    <path d="M 21.766919621934818,134.90699362967752 A 144,144 0 0,1 29.96134731837472,107.89358573942704" />
    <path d="M 36.003337933836875,95.118869897056356 A 144,144 0 0,1 148.88553179254328,19.693399359203653" />
    <path d="M 178.68274245272968,3.7704437324484843 A 160,160 0 1,1 163,3" />
  </g>
  <g fill="none" stroke="#000000" stroke-width="2" stroke-linecap="butt">
    <line x1="163" y1="3" x2="163" y2="51" />
    <line x1="163" y1="83" x2="163" y2="99" />
    <line x1="163" y1="115" x2="163" y2="131" />
    <line x1="191.09300637032246" y1="21.766919621934818" x2="187.97156121806441" y2="37.459484108386505" />
    <line x1="181.72867091354831" y1="68.844613081289879" x2="178.60722576129027" y2="84.537177567741566" />
    <line x1="209.44554836071399" y1="9.8895462828465952" x2="204.80099352464259" y2="25.200591654561919" />
    <line x1="218.10641426057293" y1="29.96134731837472" x2="205.86054442489007" y2="59.525492358735889" />
    <line x1="193.6146745892072" y1="89.089637399097057" x2="181.3688047535243" y2="118.65378243945824" />
    <line x1="238.42347789215961" y1="21.892597704263181" x2="230.88113010294364" y2="36.003337933836875" />
    <line x1="216.33474236988181" y1="83.178917218955661" x2="207.44561864156816" y2="96.482431015796379" />
    <line x1="253.50966799187808" y1="72.490332008121911" x2="242.19595949289331" y2="83.804040507106677" />
    <line x1="208.25483399593904" y1="117.74516600406096" x2="196.94112549695427" y2="129.05887450304573" />
    <line x1="282.73162417156652" y1="82.997886445177272" x2="269.4281103747258" y2="91.8870101734909" />
    <line x1="316.1104537171534" y1="116.55445163928603" x2="300.79940834543811" y2="121.19900647535742" />
    <line x1="304.23308037806521" y1="134.90699362967752" x2="257.15538691871012" y2="144.27132908645169" />
    <line x1="322.22955626755152" y1="147.31725754727029" x2="306.30660064079632" y2="148.88553179254325" />
    <line x1="307" y1="163" x2="291" y2="163" />
    <line x1="275" y1="163" x2="227" y2="163" />
    <line x1="211" y1="163" x2="195" y2="163" />
    <line x1="288.5405158916135" y1="187.97156121806441" x2="272.84795140516178" y2="184.85011606580636" />
    <line x1="257.15538691871012" y1="181.72867091354831" x2="241.46282243225843" y2="178.60722576129027" />
    <line x1="236.91036260090294" y1="193.61467458920717" x2="207.34621756054176" y2="181.3688047535243" />
    <line x1="282.73162417156652" y1="243.0021135548227" x2="256.12459657788509" y2="225.2238660981954" />
    <line x1="242.82108278104437" y1="216.33474236988178" x2="229.51756898420365" y2="207.44561864156816" />
    <line x1="276.13708498984761" y1="276.13708498984761" x2="264.82337649086287" y2="264.82337649086287" />
    <line x1="242.19595949289334" y1="242.19595949289331" x2="230.88225099390857" y2="230.88225099390854" />
    <line x1="196.94112549695427" y1="196.94112549695427" x2="185.62741699796953" y2="185.62741699796953" />
    <line x1="234.11298982650908" y1="269.4281103747258" x2="225.22386609819546" y2="256.12459657788509" />
    <line x1="216.33474236988181" y1="242.82108278104437" x2="207.44561864156816" y2="229.51756898420362" />
    <line x1="218.10641426057293" y1="296.03865268162531" x2="199.73760950704863" y2="251.69243512108352" />
    <line x1="187.97156121806447" y1="288.5405158916135" x2="184.85011606580639" y2="272.84795140516178" />
    <line x1="163.00000000000003" y1="307" x2="163.00000000000003" y2="291" />
    <line x1="163" y1="227" x2="163" y2="211" />
    <line x1="134.90699362967752" y1="304.23308037806521" x2="138.02843878193556" y2="288.5405158916135" />
    <line x1="144.27132908645169" y1="257.15538691871012" x2="147.39277423870973" y2="241.46282243225843" />
    <line x1="114.01652065726853" y1="281.25658016144473" x2="120.13945557510996" y2="266.47450764126415" />
    <line x1="132.38532541079283" y1="236.91036260090294" x2="138.50826032863427" y2="222.12829008072237" />
    <line x1="87.576522107840376" y1="304.10740229573685" x2="95.118869897056342" y2="289.99666206616314" />
    <line x1="100.77613390180459" y1="256.12459657788509" x2="109.66525763011822" y2="242.82108278104437" />
    <line x1="61.497074533816757" y1="286.6816725380379" x2="71.647367080435089" y2="274.31350528423411" />
    <line x1="61.176623509137158" y1="264.82337649086287" x2="72.490332008121925" y2="253.5096679918781" />
    <line x1="129.05887450304573" y1="196.94112549695427" x2="140.37258300203047" y2="185.62741699796953" />
    <line x1="29.964862031592759" y1="251.89123728313635" x2="43.268375828433491" y2="243.0021135548227" />
    <line x1="56.57188962527421" y1="234.11298982650908" x2="96.482431015796379" y2="207.44561864156816" />
    <line x1="29.961347318374749" y1="218.10641426057302" x2="44.743419838555326" y2="211.98347934273156" />
    <line x1="89.089637399097086" y1="193.61467458920723" x2="118.65378243945824" y2="181.36880475352433" />
    <line x1="9.8895462828465952" y1="209.44554836071399" x2="25.200591654561919" y2="204.80099352464259" />
    <line x1="37.459484108386519" y1="187.97156121806447" x2="53.152048594838206" y2="184.85011606580642" />
    <line x1="19" y1="163.00000000000003" x2="35" y2="163.00000000000003" />
    <line x1="83" y1="163.00000000000003" x2="99" y2="163" />
    <line x1="115" y1="163" x2="131" y2="163" />
    <line x1="3.7704437324484843" y1="147.31725754727037" x2="19.693399359203653" y2="148.88553179254336" />
    <line x1="53.152048594838192" y1="141.14988393419364" x2="84.537177567741566" y2="147.39277423870973" />
    <line x1="15.179274798194143" y1="101.77065082158561" x2="29.96134731837472" y2="107.89358573942704" />
    <line x1="59.5254923587359" y1="120.13945557510992" x2="89.089637399097072" y2="132.3853254107928" />
    <line x1="43.268375828433449" y1="82.997886445177329" x2="56.571889625274181" y2="91.887010173490964" />
    <line x1="69.875403422114914" y1="100.7761339018046" x2="83.178917218955633" y2="109.66525763011822" />
    <line x1="72.4903320081219" y1="72.490332008121939" x2="83.804040507106663" y2="83.804040507106691" />
    <line x1="106.43145750507618" y1="106.43145750507621" x2="129.05887450304573" y2="129.05887450304573" />
    <line x1="100.77613390180456" y1="69.875403422114928" x2="109.66525763011819" y2="83.178917218955661" />
    <line x1="138.50826032863421" y1="103.87170991927766" x2="144.63119524647567" y2="118.65378243945824" />
    <line x1="134.90699362967746" y1="21.766919621934846" x2="138.02843878193554" y2="37.459484108386519" />
  </g>
</svg>
